<?xml version="1.0" encoding="utf-8"?>
<!-- Generator: Adobe Illustrator 19.2.1, SVG Export Plug-In . SVG Version: 6.00 Build 0)  -->
<svg version="1.1" id="Layer_1" xmlns="http://www.w3.org/2000/svg" xmlns:xlink="http://www.w3.org/1999/xlink" x="0px" y="0px"
	 viewBox="0 0 400 380" style="enable-background:new 0 0 400 380;" xml:space="preserve">
<style type="text/css">
	.st0{fill:#98002E;}
	.st1{fill:#FFFFFF;}
	.st2{fill:#F15A24;}
	.st3{fill:#3FA9F5;}
	.st4{fill:#9163AA;}
</style>
<g>
	<path d="M165.8,294.7c0,2.1-0.5,3.7-1.6,4.9s-2.5,1.8-4.3,1.8c-1.9,0-3.4-0.6-4.4-1.7s-1.5-2.8-1.5-4.9c0-2.1,0.5-3.7,1.5-4.9
		s2.5-1.7,4.4-1.7c1.8,0,3.3,0.6,4.3,1.8S165.8,292.7,165.8,294.7z M155.6,294.7c0,1.7,0.4,3.1,1.1,4s1.8,1.3,3.2,1.3
		c1.4,0,2.5-0.4,3.2-1.3s1.1-2.2,1.1-4c0-1.7-0.4-3-1.1-3.9s-1.8-1.3-3.2-1.3c-1.4,0-2.5,0.4-3.2,1.3S155.6,293,155.6,294.7z"/>
	<path d="M173,301.4c-0.6,0-1.2-0.1-1.7-0.3s-1-0.6-1.3-1.1h-0.1c0.1,0.6,0.1,1.1,0.1,1.6v4h-1.5v-14h1.2l0.2,1.3h0.1
		c0.4-0.5,0.8-0.9,1.3-1.1s1.1-0.4,1.7-0.4c1.3,0,2.3,0.4,3,1.3s1,2.1,1,3.7c0,1.6-0.4,2.8-1.1,3.7S174.2,301.4,173,301.4z
		 M172.7,292.6c-1,0-1.7,0.3-2.1,0.8s-0.7,1.4-0.7,2.6v0.3c0,1.4,0.2,2.3,0.7,2.9s1.2,0.9,2.2,0.9c0.8,0,1.5-0.3,2-1
		s0.7-1.6,0.7-2.8c0-1.2-0.2-2.1-0.7-2.8S173.6,292.6,172.7,292.6z"/>
	<path d="M183.6,301.4c-1.4,0-2.5-0.4-3.4-1.3s-1.2-2.1-1.2-3.6c0-1.6,0.4-2.8,1.1-3.7s1.8-1.4,3.1-1.4c1.2,0,2.2,0.4,2.9,1.2
		s1.1,1.8,1.1,3.1v0.9h-6.6c0,1.1,0.3,2,0.9,2.6s1.3,0.9,2.3,0.9c1,0,2.1-0.2,3.1-0.7v1.3c-0.5,0.2-1,0.4-1.5,0.5
		S184.2,301.4,183.6,301.4z M183.2,292.6c-0.8,0-1.4,0.3-1.8,0.8s-0.7,1.2-0.8,2.1h5c0-0.9-0.2-1.6-0.6-2.1S183.9,292.6,183.2,292.6
		z"/>
	<path d="M194,291.4c0.4,0,0.8,0,1.2,0.1l-0.2,1.4c-0.4-0.1-0.8-0.1-1.1-0.1c-0.8,0-1.4,0.3-2,0.9s-0.8,1.4-0.8,2.4v5.2h-1.5v-9.6
		h1.2l0.2,1.8h0.1c0.4-0.6,0.8-1.1,1.3-1.5S193.4,291.4,194,291.4z"/>
	<path d="M202.9,301.2l-0.3-1.4h-0.1c-0.5,0.6-1,1-1.4,1.2s-1.1,0.3-1.8,0.3c-1,0-1.7-0.2-2.2-0.7s-0.8-1.2-0.8-2.1
		c0-1.9,1.6-3,4.7-3.1l1.6-0.1v-0.6c0-0.8-0.2-1.3-0.5-1.7s-0.8-0.5-1.6-0.5c-0.8,0-1.7,0.2-2.7,0.7l-0.4-1.1c0.5-0.3,1-0.5,1.6-0.6
		s1.1-0.2,1.7-0.2c1.1,0,2,0.3,2.6,0.8s0.8,1.3,0.8,2.5v6.6H202.9z M199.6,300.1c0.9,0,1.6-0.2,2.1-0.7s0.8-1.2,0.8-2.1v-0.9
		l-1.5,0.1c-1.2,0-2,0.2-2.5,0.5s-0.8,0.8-0.8,1.5c0,0.5,0.2,0.9,0.5,1.2S199,300.1,199.6,300.1z"/>
	<path d="M210.1,300.1c0.3,0,0.5,0,0.7-0.1s0.4-0.1,0.6-0.1v1.1c-0.2,0.1-0.4,0.1-0.7,0.2s-0.6,0.1-0.8,0.1c-1.9,0-2.8-1-2.8-2.9
		v-5.7h-1.4V292l1.4-0.6l0.6-2.1h0.8v2.2h2.8v1.1h-2.8v5.7c0,0.6,0.1,1,0.4,1.3S209.6,300.1,210.1,300.1z"/>
	<path d="M213.2,288.9c0-0.3,0.1-0.6,0.2-0.7s0.4-0.2,0.6-0.2c0.2,0,0.4,0.1,0.6,0.2s0.3,0.4,0.3,0.7s-0.1,0.6-0.3,0.7
		s-0.4,0.2-0.6,0.2c-0.2,0-0.5-0.1-0.6-0.2S213.2,289.3,213.2,288.9z M214.8,301.2h-1.5v-9.6h1.5V301.2z"/>
	<path d="M226.2,296.3c0,1.6-0.4,2.8-1.2,3.7s-1.9,1.3-3.3,1.3c-0.9,0-1.6-0.2-2.3-0.6s-1.2-1-1.5-1.7s-0.5-1.6-0.5-2.7
		c0-1.6,0.4-2.8,1.2-3.7s1.9-1.3,3.3-1.3c1.3,0,2.4,0.4,3.2,1.3S226.2,294.8,226.2,296.3z M218.8,296.3c0,1.2,0.2,2.2,0.7,2.8
		s1.2,1,2.2,1s1.7-0.3,2.2-1s0.7-1.6,0.7-2.8c0-1.2-0.2-2.2-0.7-2.8s-1.2-1-2.2-1c-1,0-1.7,0.3-2.2,0.9S218.8,295.1,218.8,296.3z"/>
	<path d="M235.3,301.2v-6.2c0-0.8-0.2-1.4-0.5-1.8s-0.9-0.6-1.7-0.6c-1,0-1.7,0.3-2.2,0.8s-0.7,1.4-0.7,2.7v5.1h-1.5v-9.6h1.2
		l0.2,1.3h0.1c0.3-0.5,0.7-0.8,1.3-1.1s1.1-0.4,1.8-0.4c1.2,0,2,0.3,2.6,0.8s0.9,1.5,0.9,2.7v6.3H235.3z"/>
	<path d="M246,298.5c0,0.9-0.3,1.6-1,2.1s-1.6,0.7-2.8,0.7c-1.3,0-2.3-0.2-3-0.6v-1.4c0.5,0.2,1,0.4,1.5,0.6s1,0.2,1.5,0.2
		c0.8,0,1.3-0.1,1.8-0.4s0.6-0.6,0.6-1.1c0-0.4-0.2-0.7-0.5-1c-0.3-0.3-1-0.6-1.9-0.9c-0.9-0.3-1.5-0.6-1.9-0.9s-0.7-0.5-0.8-0.8
		s-0.3-0.7-0.3-1.1c0-0.8,0.3-1.4,1-1.9s1.5-0.7,2.6-0.7c1,0,2.1,0.2,3,0.6l-0.5,1.2c-1-0.4-1.8-0.6-2.6-0.6c-0.7,0-1.2,0.1-1.6,0.3
		s-0.5,0.5-0.5,0.9c0,0.3,0.1,0.5,0.2,0.7s0.3,0.4,0.6,0.5s0.9,0.4,1.7,0.7c1.1,0.4,1.9,0.8,2.3,1.3S246,297.9,246,298.5z"/>
</g>
<g>
	<path d="M35.3,97.3c0,2.1-0.6,3.7-1.7,4.9s-2.8,1.7-5,1.7h-3.6V91H29c2,0,3.6,0.6,4.7,1.7S35.3,95.3,35.3,97.3z M33.7,97.3
		c0-1.7-0.4-2.9-1.3-3.8s-2.1-1.3-3.7-1.3h-2.2v10.3h1.8c1.8,0,3.1-0.4,4-1.3S33.7,99.1,33.7,97.3z"/>
	<path d="M42,104c-1.4,0-2.5-0.4-3.4-1.3s-1.2-2.1-1.2-3.6c0-1.6,0.4-2.8,1.1-3.7s1.8-1.4,3.1-1.4c1.2,0,2.2,0.4,2.9,1.2
		s1.1,1.8,1.1,3.1v0.9h-6.6c0,1.1,0.3,2,0.9,2.6s1.3,0.9,2.3,0.9c1,0,2.1-0.2,3.1-0.7v1.3c-0.5,0.2-1,0.4-1.5,0.5S42.7,104,42,104z
		 M41.6,95.3c-0.8,0-1.4,0.3-1.8,0.8S39,97.2,39,98.1h5c0-0.9-0.2-1.6-0.6-2.1S42.4,95.3,41.6,95.3z"/>
	<path d="M50.2,103.8l-3.7-9.6h1.6l2.1,5.7c0.5,1.3,0.7,2.2,0.8,2.6H51c0.1-0.3,0.3-1,0.6-1.9s1.1-3.1,2.3-6.4h1.6l-3.7,9.6H50.2z"
		/>
	<path d="M61.1,104c-1.4,0-2.5-0.4-3.4-1.3s-1.2-2.1-1.2-3.6c0-1.6,0.4-2.8,1.1-3.7s1.8-1.4,3.1-1.4c1.2,0,2.2,0.4,2.9,1.2
		s1.1,1.8,1.1,3.1v0.9H58c0,1.1,0.3,2,0.9,2.6s1.3,0.9,2.3,0.9c1,0,2.1-0.2,3.1-0.7v1.3c-0.5,0.2-1,0.4-1.5,0.5S61.8,104,61.1,104z
		 M60.7,95.3c-0.8,0-1.4,0.3-1.8,0.8s-0.7,1.2-0.8,2.1h5c0-0.9-0.2-1.6-0.6-2.1S61.5,95.3,60.7,95.3z"/>
	<path d="M68.6,103.8h-1.5V90.2h1.5V103.8z"/>
	<path d="M80,99c0,1.6-0.4,2.8-1.2,3.7S77,104,75.6,104c-0.9,0-1.6-0.2-2.3-0.6s-1.2-1-1.5-1.7s-0.5-1.6-0.5-2.7
		c0-1.6,0.4-2.8,1.2-3.7s1.9-1.3,3.3-1.3c1.3,0,2.4,0.4,3.2,1.3S80,97.5,80,99z M72.7,99c0,1.2,0.2,2.2,0.7,2.8s1.2,1,2.2,1
		s1.7-0.3,2.2-1s0.7-1.6,0.7-2.8c0-1.2-0.2-2.2-0.7-2.8s-1.2-1-2.2-1c-1,0-1.7,0.3-2.2,0.9S72.7,97.8,72.7,99z"/>
	<path d="M87.1,104c-0.6,0-1.2-0.1-1.7-0.3s-1-0.6-1.3-1.1h-0.1c0.1,0.6,0.1,1.1,0.1,1.6v4h-1.5v-14h1.2l0.2,1.3h0.1
		c0.4-0.5,0.8-0.9,1.3-1.1s1.1-0.4,1.7-0.4c1.3,0,2.3,0.4,3,1.3s1,2.1,1,3.7c0,1.6-0.4,2.8-1.1,3.7S88.3,104,87.1,104z M86.9,95.3
		c-1,0-1.7,0.3-2.1,0.8s-0.7,1.4-0.7,2.6V99c0,1.4,0.2,2.3,0.7,2.9s1.2,0.9,2.2,0.9c0.8,0,1.5-0.3,2-1s0.7-1.6,0.7-2.8
		c0-1.2-0.2-2.1-0.7-2.8S87.7,95.3,86.9,95.3z"/>
	<path d="M105.9,103.8v-6.3c0-0.8-0.2-1.3-0.5-1.7s-0.8-0.6-1.5-0.6c-0.9,0-1.6,0.3-2,0.8s-0.7,1.3-0.7,2.4v5.4h-1.5v-6.3
		c0-0.8-0.2-1.3-0.5-1.7s-0.8-0.6-1.5-0.6c-0.9,0-1.6,0.3-2,0.8s-0.6,1.4-0.6,2.7v5.1h-1.5v-9.6h1.2l0.2,1.3h0.1
		c0.3-0.5,0.7-0.8,1.2-1.1S97.3,94,98,94c1.5,0,2.5,0.5,3,1.6h0.1c0.3-0.5,0.7-0.9,1.2-1.2s1.2-0.4,1.9-0.4c1.1,0,1.9,0.3,2.4,0.8
		s0.8,1.5,0.8,2.7v6.3H105.9z"/>
	<path d="M114.4,104c-1.4,0-2.5-0.4-3.4-1.3s-1.2-2.1-1.2-3.6c0-1.6,0.4-2.8,1.1-3.7s1.8-1.4,3.1-1.4c1.2,0,2.2,0.4,2.9,1.2
		s1.1,1.8,1.1,3.1v0.9h-6.6c0,1.1,0.3,2,0.9,2.6s1.3,0.9,2.3,0.9c1,0,2.1-0.2,3.1-0.7v1.3c-0.5,0.2-1,0.4-1.5,0.5
		S115.1,104,114.4,104z M114,95.3c-0.8,0-1.4,0.3-1.8,0.8s-0.7,1.2-0.8,2.1h5c0-0.9-0.2-1.6-0.6-2.1S114.8,95.3,114,95.3z"/>
	<path d="M127.1,103.8v-6.2c0-0.8-0.2-1.4-0.5-1.8s-0.9-0.6-1.7-0.6c-1,0-1.7,0.3-2.2,0.8s-0.7,1.4-0.7,2.7v5.1h-1.5v-9.6h1.2
		l0.2,1.3h0.1c0.3-0.5,0.7-0.8,1.3-1.1s1.1-0.4,1.8-0.4c1.2,0,2,0.3,2.6,0.8s0.9,1.5,0.9,2.7v6.3H127.1z"/>
	<path d="M134.6,102.8c0.3,0,0.5,0,0.7-0.1s0.4-0.1,0.6-0.1v1.1c-0.2,0.1-0.4,0.1-0.7,0.2c-0.3,0-0.6,0.1-0.8,0.1
		c-1.9,0-2.8-1-2.8-2.9v-5.7h-1.4v-0.7l1.4-0.6l0.6-2.1h0.8v2.2h2.8v1.1h-2.8v5.7c0,0.6,0.1,1,0.4,1.3S134.1,102.8,134.6,102.8z"/>
	<path d="M24.1,115.6c0-0.7,0.1-1.3,0.3-1.9c0.2-0.6,0.5-1.1,0.9-1.6h0.6c-0.4,0.5-0.7,1.1-0.8,1.7c-0.2,0.6-0.3,1.2-0.3,1.9
		c0,0.6,0.1,1.2,0.3,1.8c0.2,0.6,0.5,1.1,0.8,1.6h-0.6c-0.4-0.4-0.7-1-0.9-1.6C24.2,117,24.1,116.3,24.1,115.6z"/>
	<path d="M30.7,116.3c0,0.5-0.2,0.9-0.5,1.2c-0.4,0.3-0.9,0.4-1.5,0.4c-0.7,0-1.2-0.1-1.6-0.3V117c0.2,0.1,0.5,0.2,0.8,0.2
		c0.3,0.1,0.5,0.1,0.8,0.1c0.4,0,0.8-0.1,1-0.3c0.2-0.2,0.3-0.4,0.3-0.7c0-0.2,0-0.4-0.1-0.5c-0.1-0.1-0.2-0.2-0.4-0.3
		c-0.2-0.1-0.5-0.2-0.8-0.4c-0.5-0.2-0.9-0.4-1.1-0.7c-0.2-0.3-0.3-0.6-0.3-1c0-0.4,0.2-0.8,0.5-1.1c0.3-0.3,0.8-0.4,1.3-0.4
		c0.6,0,1.1,0.1,1.6,0.3l-0.2,0.6c-0.5-0.2-0.9-0.3-1.4-0.3c-0.4,0-0.6,0.1-0.8,0.2c-0.2,0.2-0.3,0.4-0.3,0.6c0,0.2,0,0.4,0.1,0.5
		c0.1,0.1,0.2,0.2,0.4,0.3c0.2,0.1,0.4,0.2,0.8,0.3c0.6,0.2,1,0.4,1.2,0.7C30.6,115.6,30.7,115.9,30.7,116.3z"/>
	<path d="M37.4,115c0,0.9-0.2,1.6-0.7,2.2c-0.5,0.5-1.1,0.8-1.9,0.8c-0.8,0-1.5-0.3-1.9-0.8s-0.7-1.2-0.7-2.2c0-0.9,0.2-1.7,0.7-2.2
		c0.5-0.5,1.1-0.8,2-0.8c0.8,0,1.5,0.3,1.9,0.8S37.4,114.1,37.4,115z M32.8,115c0,0.8,0.2,1.4,0.5,1.8c0.3,0.4,0.8,0.6,1.4,0.6
		c0.6,0,1.1-0.2,1.4-0.6c0.3-0.4,0.5-1,0.5-1.8c0-0.8-0.2-1.4-0.5-1.7c-0.3-0.4-0.8-0.6-1.4-0.6c-0.6,0-1.1,0.2-1.4,0.6
		C33,113.6,32.8,114.2,32.8,115z"/>
	<path d="M39.9,117.8h-0.7v-5.7h3.2v0.6h-2.5v2.1h2.4v0.6h-2.4V117.8z"/>
	<path d="M45.7,117.8H45v-5.1h-1.8v-0.6h4.3v0.6h-1.8V117.8z"/>
	<path d="M53.9,117.8h-0.7l-1.2-3.8c-0.1-0.2-0.1-0.4-0.2-0.6c-0.1-0.3-0.1-0.4-0.1-0.5c-0.1,0.3-0.1,0.7-0.3,1.1l-1.1,3.8h-0.7
		l-1.5-5.7h0.7l0.9,3.5c0.1,0.5,0.2,0.9,0.3,1.3c0.1-0.5,0.2-0.9,0.3-1.4l1-3.5h0.7l1.1,3.5c0.1,0.4,0.2,0.9,0.3,1.4
		c0-0.4,0.1-0.8,0.3-1.4l0.9-3.5h0.7L53.9,117.8z"/>
	<path d="M60.4,117.8l-0.7-1.8h-2.3l-0.7,1.8h-0.7l2.3-5.7h0.6l2.2,5.7H60.4z M59.5,115.4l-0.7-1.8c-0.1-0.2-0.2-0.5-0.3-0.8
		c-0.1,0.3-0.1,0.5-0.2,0.8l-0.7,1.8H59.5z"/>
	<path d="M63.1,115.5v2.4h-0.7v-5.7H64c0.7,0,1.2,0.1,1.6,0.4c0.3,0.3,0.5,0.7,0.5,1.2c0,0.8-0.4,1.3-1.1,1.5l1.6,2.6h-0.8l-1.4-2.4
		H63.1z M63.1,114.9H64c0.5,0,0.8-0.1,1-0.3s0.3-0.5,0.3-0.8c0-0.4-0.1-0.6-0.3-0.8s-0.6-0.3-1.1-0.3h-0.9V114.9z"/>
	<path d="M71.2,117.8H68v-5.7h3.2v0.6h-2.5v1.8H71v0.6h-2.4v2.1h2.5V117.8z"/>
	<path d="M78.8,117.8h-3.2v-5.7h3.2v0.6h-2.5v1.8h2.4v0.6h-2.4v2.1h2.5V117.8z"/>
	<path d="M85.1,117.8h-0.8l-3.1-4.8h0c0,0.6,0.1,1.1,0.1,1.5v3.2h-0.6v-5.7h0.8l3.1,4.8h0c0-0.1,0-0.3,0-0.7c0-0.4,0-0.7,0-0.8v-3.3
		h0.6V117.8z"/>
	<path d="M89.7,114.8h1.9v2.8c-0.3,0.1-0.6,0.2-0.9,0.2s-0.7,0.1-1.1,0.1c-0.9,0-1.5-0.3-2-0.8c-0.5-0.5-0.7-1.2-0.7-2.2
		c0-0.6,0.1-1.1,0.4-1.6s0.6-0.8,1-1c0.4-0.2,1-0.4,1.6-0.4c0.6,0,1.2,0.1,1.7,0.3l-0.3,0.6c-0.5-0.2-1-0.3-1.5-0.3
		c-0.7,0-1.2,0.2-1.6,0.6s-0.6,1-0.6,1.7c0,0.8,0.2,1.4,0.6,1.8c0.4,0.4,0.9,0.6,1.7,0.6c0.4,0,0.8,0,1.2-0.1v-1.8h-1.3V114.8z"/>
	<path d="M93.6,117.8v-5.7h0.7v5.7H93.6z"/>
	<path d="M100.9,117.8h-0.8L97,113h0c0,0.6,0.1,1.1,0.1,1.5v3.2h-0.6v-5.7h0.8l3.1,4.8h0c0-0.1,0-0.3,0-0.7c0-0.4,0-0.7,0-0.8v-3.3
		h0.6V117.8z"/>
	<path d="M106.2,117.8H103v-5.7h3.2v0.6h-2.5v1.8h2.4v0.6h-2.4v2.1h2.5V117.8z"/>
	<path d="M111.2,117.8H108v-5.7h3.2v0.6h-2.5v1.8h2.4v0.6h-2.4v2.1h2.5V117.8z"/>
	<path d="M113.7,115.5v2.4H113v-5.7h1.6c0.7,0,1.2,0.1,1.6,0.4c0.3,0.3,0.5,0.7,0.5,1.2c0,0.8-0.4,1.3-1.1,1.5l1.6,2.6h-0.8
		l-1.4-2.4H113.7z M113.7,114.9h0.9c0.5,0,0.8-0.1,1-0.3s0.3-0.5,0.3-0.8c0-0.4-0.1-0.6-0.3-0.8s-0.6-0.3-1.1-0.3h-0.9V114.9z"/>
	<path d="M118.5,117.8v-5.7h0.7v5.7H118.5z"/>
	<path d="M125.8,117.8H125l-3.1-4.8h0c0,0.6,0.1,1.1,0.1,1.5v3.2h-0.6v-5.7h0.8l3.1,4.8h0c0-0.1,0-0.3,0-0.7c0-0.4,0-0.7,0-0.8v-3.3
		h0.6V117.8z"/>
	<path d="M130.4,114.8h1.9v2.8c-0.3,0.1-0.6,0.2-0.9,0.2s-0.7,0.1-1.1,0.1c-0.9,0-1.5-0.3-2-0.8s-0.7-1.2-0.7-2.2
		c0-0.6,0.1-1.1,0.4-1.6s0.6-0.8,1-1s1-0.4,1.6-0.4c0.6,0,1.2,0.1,1.7,0.3L132,113c-0.5-0.2-1-0.3-1.5-0.3c-0.7,0-1.2,0.2-1.6,0.6
		s-0.6,1-0.6,1.7c0,0.8,0.2,1.4,0.6,1.8s0.9,0.6,1.7,0.6c0.4,0,0.8,0,1.2-0.1v-1.8h-1.3V114.8z"/>
	<path d="M135.5,115.6c0,0.7-0.1,1.3-0.3,1.9s-0.5,1.1-0.9,1.5h-0.6c0.4-0.5,0.6-1,0.8-1.6s0.3-1.2,0.3-1.8c0-0.6-0.1-1.3-0.3-1.9
		s-0.5-1.2-0.8-1.7h0.6c0.4,0.5,0.7,1,0.9,1.6S135.5,115,135.5,115.6z"/>
</g>
<g>
	<path d="M321.4,98.1c0,1.6-0.3,3-1,4.1s-1.6,1.8-2.8,2.2l3.1,3.2h-2.2l-2.5-2.9l-0.5,0c-1.9,0-3.4-0.6-4.4-1.7s-1.5-2.8-1.5-4.9
		c0-2.1,0.5-3.7,1.5-4.9s2.5-1.7,4.4-1.7c1.8,0,3.3,0.6,4.3,1.8S321.4,96,321.4,98.1z M311.1,98.1c0,1.7,0.4,3.1,1.1,4
		s1.8,1.3,3.2,1.3c1.4,0,2.5-0.4,3.2-1.3s1.1-2.2,1.1-4c0-1.7-0.4-3-1.1-3.9s-1.8-1.3-3.2-1.3c-1.4,0-2.5,0.4-3.2,1.3
		S311.1,96.3,311.1,98.1z"/>
	<path d="M332.3,104.5l-1.6-4.1h-5.2l-1.6,4.1h-1.5l5.1-12.9h1.3l5.1,12.9H332.3z M330.2,99.1l-1.5-4c-0.2-0.5-0.4-1.1-0.6-1.9
		c-0.1,0.6-0.3,1.2-0.6,1.9l-1.5,4H330.2z"/>
	<path d="M274.2,116.3c0-0.7,0.1-1.3,0.3-1.9c0.2-0.6,0.5-1.1,0.9-1.6h0.6c-0.4,0.5-0.7,1.1-0.8,1.7c-0.2,0.6-0.3,1.2-0.3,1.9
		c0,0.6,0.1,1.2,0.3,1.8c0.2,0.6,0.5,1.1,0.8,1.6h-0.6c-0.4-0.4-0.7-1-0.9-1.6C274.3,117.6,274.2,117,274.2,116.3z"/>
	<path d="M282.6,115.6c0,0.7-0.1,1.3-0.4,1.8c-0.3,0.5-0.7,0.8-1.2,1l1.4,1.4h-1l-1.1-1.3l-0.2,0c-0.8,0-1.5-0.3-1.9-0.8
		s-0.7-1.2-0.7-2.2c0-0.9,0.2-1.7,0.7-2.2c0.5-0.5,1.1-0.8,2-0.8c0.8,0,1.5,0.3,1.9,0.8S282.6,114.7,282.6,115.6z M278,115.6
		c0,0.8,0.2,1.4,0.5,1.8c0.3,0.4,0.8,0.6,1.4,0.6c0.6,0,1.1-0.2,1.4-0.6c0.3-0.4,0.5-1,0.5-1.8c0-0.8-0.2-1.4-0.5-1.7
		c-0.3-0.4-0.8-0.6-1.4-0.6c-0.6,0-1.1,0.2-1.4,0.6C278.2,114.3,278,114.9,278,115.6z"/>
	<path d="M288.7,112.8v3.7c0,0.7-0.2,1.2-0.6,1.5c-0.4,0.4-0.9,0.6-1.6,0.6s-1.2-0.2-1.6-0.6c-0.4-0.4-0.6-0.9-0.6-1.5v-3.7h0.7v3.7
		c0,0.5,0.1,0.8,0.4,1.1c0.3,0.3,0.6,0.4,1.1,0.4c0.5,0,0.9-0.1,1.1-0.4c0.3-0.3,0.4-0.6,0.4-1.1v-3.7H288.7z"/>
	<path d="M294.4,118.5l-0.7-1.8h-2.3l-0.7,1.8H290l2.3-5.7h0.6l2.2,5.7H294.4z M293.4,116.1l-0.7-1.8c-0.1-0.2-0.2-0.5-0.3-0.8
		c-0.1,0.3-0.1,0.5-0.2,0.8l-0.7,1.8H293.4z"/>
	<path d="M296.4,118.5v-5.7h0.7v5.1h2.5v0.6H296.4z"/>
	<path d="M301.1,118.5v-5.7h0.7v5.7H301.1z"/>
	<path d="M305.7,118.5H305v-5.1h-1.8v-0.6h4.3v0.6h-1.8V118.5z"/>
	<path d="M310.3,115.7l1.5-2.9h0.7l-1.9,3.5v2.2H310v-2.2l-1.9-3.5h0.7L310.3,115.7z"/>
	<path d="M320.2,118.5l-0.7-1.8h-2.3l-0.7,1.8h-0.7l2.3-5.7h0.6l2.2,5.7H320.2z M319.2,116.1l-0.7-1.8c-0.1-0.2-0.2-0.5-0.3-0.8
		c-0.1,0.3-0.1,0.5-0.2,0.8l-0.7,1.8H319.2z"/>
	<path d="M325.4,117c0,0.5-0.2,0.9-0.5,1.2c-0.4,0.3-0.9,0.4-1.5,0.4c-0.7,0-1.2-0.1-1.6-0.3v-0.6c0.2,0.1,0.5,0.2,0.8,0.2
		c0.3,0.1,0.5,0.1,0.8,0.1c0.4,0,0.8-0.1,1-0.3c0.2-0.2,0.3-0.4,0.3-0.7c0-0.2,0-0.4-0.1-0.5c-0.1-0.1-0.2-0.2-0.4-0.3
		c-0.2-0.1-0.5-0.2-0.8-0.4c-0.5-0.2-0.9-0.4-1.1-0.7c-0.2-0.3-0.3-0.6-0.3-1c0-0.4,0.2-0.8,0.5-1.1c0.3-0.3,0.8-0.4,1.3-0.4
		c0.6,0,1.1,0.1,1.6,0.3l-0.2,0.6c-0.5-0.2-0.9-0.3-1.4-0.3c-0.4,0-0.6,0.1-0.8,0.2c-0.2,0.2-0.3,0.4-0.3,0.6c0,0.2,0,0.4,0.1,0.5
		c0.1,0.1,0.2,0.2,0.4,0.3c0.2,0.1,0.4,0.2,0.8,0.3c0.6,0.2,1,0.4,1.2,0.7C325.3,116.3,325.4,116.6,325.4,117z"/>
	<path d="M330.4,117c0,0.5-0.2,0.9-0.5,1.2c-0.4,0.3-0.9,0.4-1.5,0.4c-0.7,0-1.2-0.1-1.6-0.3v-0.6c0.2,0.1,0.5,0.2,0.8,0.2
		c0.3,0.1,0.5,0.1,0.8,0.1c0.4,0,0.8-0.1,1-0.3c0.2-0.2,0.3-0.4,0.3-0.7c0-0.2,0-0.4-0.1-0.5c-0.1-0.1-0.2-0.2-0.4-0.3
		c-0.2-0.1-0.5-0.2-0.8-0.4c-0.5-0.2-0.9-0.4-1.1-0.7c-0.2-0.3-0.3-0.6-0.3-1c0-0.4,0.2-0.8,0.5-1.1c0.3-0.3,0.8-0.4,1.3-0.4
		c0.6,0,1.1,0.1,1.6,0.3l-0.2,0.6c-0.5-0.2-0.9-0.3-1.4-0.3c-0.4,0-0.6,0.1-0.8,0.2c-0.2,0.2-0.3,0.4-0.3,0.6c0,0.2,0,0.4,0.1,0.5
		c0.1,0.1,0.2,0.2,0.4,0.3c0.2,0.1,0.4,0.2,0.8,0.3c0.6,0.2,1,0.4,1.2,0.7C330.2,116.3,330.4,116.6,330.4,117z"/>
	<path d="M336.4,112.8v3.7c0,0.7-0.2,1.2-0.6,1.5c-0.4,0.4-0.9,0.6-1.6,0.6s-1.2-0.2-1.6-0.6c-0.4-0.4-0.6-0.9-0.6-1.5v-3.7h0.7v3.7
		c0,0.5,0.1,0.8,0.4,1.1c0.3,0.3,0.6,0.4,1.1,0.4c0.5,0,0.9-0.1,1.1-0.4c0.3-0.3,0.4-0.6,0.4-1.1v-3.7H336.4z"/>
	<path d="M339.1,116.1v2.4h-0.7v-5.7h1.6c0.7,0,1.2,0.1,1.6,0.4c0.3,0.3,0.5,0.7,0.5,1.2c0,0.8-0.4,1.3-1.1,1.5l1.6,2.6h-0.8
		l-1.4-2.4H339.1z M339.1,115.6h0.9c0.5,0,0.8-0.1,1-0.3s0.3-0.5,0.3-0.8c0-0.4-0.1-0.6-0.3-0.8s-0.6-0.3-1.1-0.3h-0.9V115.6z"/>
	<path d="M347.6,118.5l-0.7-1.8h-2.3l-0.7,1.8h-0.7l2.3-5.7h0.6l2.2,5.7H347.6z M346.6,116.1l-0.7-1.8c-0.1-0.2-0.2-0.5-0.3-0.8
		c-0.1,0.3-0.1,0.5-0.2,0.8l-0.7,1.8H346.6z"/>
	<path d="M354.1,118.5h-0.8l-3.1-4.8h0c0,0.6,0.1,1.1,0.1,1.5v3.2h-0.6v-5.7h0.8l3.1,4.8h0c0-0.1,0-0.3,0-0.7c0-0.4,0-0.7,0-0.8
		v-3.3h0.6V118.5z"/>
	<path d="M358.6,113.3c-0.6,0-1.1,0.2-1.5,0.6s-0.5,1-0.5,1.7c0,0.7,0.2,1.3,0.5,1.7c0.4,0.4,0.8,0.6,1.5,0.6c0.4,0,0.9-0.1,1.4-0.2
		v0.6c-0.4,0.1-0.9,0.2-1.5,0.2c-0.8,0-1.5-0.3-1.9-0.8s-0.7-1.2-0.7-2.2c0-0.6,0.1-1.1,0.3-1.5c0.2-0.4,0.5-0.8,1-1
		c0.4-0.2,0.9-0.4,1.5-0.4c0.6,0,1.1,0.1,1.6,0.3l-0.3,0.6C359.5,113.4,359.1,113.3,358.6,113.3z"/>
	<path d="M365,118.5h-3.2v-5.7h3.2v0.6h-2.5v1.8h2.4v0.6h-2.4v2.1h2.5V118.5z"/>
	<path d="M368.1,116.3c0,0.7-0.1,1.3-0.3,1.9s-0.5,1.1-0.9,1.5h-0.6c0.4-0.5,0.6-1,0.8-1.6s0.3-1.2,0.3-1.8c0-0.6-0.1-1.3-0.3-1.9
		s-0.5-1.2-0.8-1.7h0.6c0.4,0.5,0.7,1,0.9,1.6S368.1,115.6,368.1,116.3z"/>
</g>
<path class="st0" d="M200,219.5c3.6-2.8,7-5.9,10.3-9.2c18.6-18.6,30.3-42.1,34.1-67.6c-13.9-5.5-28.9-8.4-44.4-8.4
	s-30.4,2.9-44.4,8.4c3.8,25.5,15.5,49,34.1,67.6C193,213.5,196.4,216.6,200,219.5z"/>
<g>
	<path class="st1" d="M182.1,162.1c0,1.8-0.5,3.1-1.4,4.1c-1,0.9-2.4,1.4-4.2,1.4h-3v-10.8h3.3c1.7,0,3,0.5,3.9,1.4
		S182.1,160.5,182.1,162.1z M180.8,162.2c0-1.4-0.4-2.5-1.1-3.2c-0.7-0.7-1.8-1.1-3.1-1.1h-1.8v8.6h1.5c1.5,0,2.6-0.4,3.4-1.1
		C180.4,164.7,180.8,163.6,180.8,162.2z"/>
	<path class="st1" d="M187.7,167.8c-1.2,0-2.1-0.4-2.8-1.1c-0.7-0.7-1-1.7-1-3c0-1.3,0.3-2.3,1-3.1s1.5-1.1,2.6-1.1
		c1,0,1.8,0.3,2.4,1s0.9,1.5,0.9,2.6v0.8h-5.6c0,0.9,0.3,1.7,0.7,2.2c0.5,0.5,1.1,0.7,1.9,0.7c0.9,0,1.7-0.2,2.6-0.5v1.1
		c-0.4,0.2-0.8,0.3-1.2,0.4C188.7,167.7,188.3,167.8,187.7,167.8z M187.4,160.4c-0.6,0-1.2,0.2-1.5,0.6c-0.4,0.4-0.6,1-0.7,1.8h4.2
		c0-0.8-0.2-1.4-0.5-1.8S188,160.4,187.4,160.4z"/>
	<path class="st1" d="M194.5,167.6l-3.1-8.1h1.3l1.7,4.8c0.4,1.1,0.6,1.8,0.7,2.2h0.1c0.1-0.3,0.2-0.8,0.5-1.6
		c0.3-0.8,0.9-2.6,1.9-5.3h1.3l-3.1,8.1H194.5z"/>
	<path class="st1" d="M209.8,162.2c0,1.7-0.4,3.1-1.3,4.1s-2.1,1.5-3.6,1.5c-1.6,0-2.8-0.5-3.7-1.5s-1.3-2.3-1.3-4.1
		c0-1.8,0.4-3.1,1.3-4.1c0.9-1,2.1-1.4,3.7-1.4c1.5,0,2.8,0.5,3.6,1.5C209.4,159.1,209.8,160.5,209.8,162.2z M201.3,162.2
		c0,1.5,0.3,2.6,0.9,3.3s1.5,1.1,2.7,1.1c1.2,0,2.1-0.4,2.7-1.1s0.9-1.9,0.9-3.3c0-1.4-0.3-2.5-0.9-3.3s-1.5-1.1-2.7-1.1
		c-1.2,0-2.1,0.4-2.7,1.1S201.3,160.8,201.3,162.2z"/>
	<path class="st1" d="M215.8,167.8c-0.5,0-1-0.1-1.4-0.3s-0.8-0.5-1.1-0.9h-0.1c0.1,0.5,0.1,0.9,0.1,1.3v3.3h-1.2v-11.7h1l0.2,1.1
		h0.1c0.3-0.4,0.7-0.8,1.1-1c0.4-0.2,0.9-0.3,1.4-0.3c1.1,0,1.9,0.4,2.5,1.1c0.6,0.7,0.9,1.8,0.9,3.1c0,1.3-0.3,2.4-0.9,3.1
		C217.7,167.4,216.9,167.8,215.8,167.8z M215.6,160.4c-0.8,0-1.4,0.2-1.8,0.7c-0.4,0.5-0.6,1.2-0.6,2.2v0.3c0,1.1,0.2,1.9,0.6,2.4
		c0.4,0.5,1,0.7,1.8,0.7c0.7,0,1.2-0.3,1.6-0.8c0.4-0.6,0.6-1.3,0.6-2.3c0-1-0.2-1.8-0.6-2.3C216.9,160.7,216.4,160.4,215.6,160.4z"
		/>
	<path class="st1" d="M226.5,165.4c0,0.8-0.3,1.3-0.8,1.7c-0.6,0.4-1.3,0.6-2.4,0.6c-1.1,0-1.9-0.2-2.5-0.5v-1.1
		c0.4,0.2,0.8,0.4,1.2,0.5c0.4,0.1,0.9,0.2,1.3,0.2c0.6,0,1.1-0.1,1.5-0.3s0.5-0.5,0.5-0.9c0-0.3-0.1-0.6-0.4-0.8s-0.8-0.5-1.6-0.8
		c-0.8-0.3-1.3-0.5-1.6-0.7s-0.6-0.4-0.7-0.7c-0.2-0.3-0.2-0.6-0.2-0.9c0-0.7,0.3-1.2,0.8-1.6s1.3-0.6,2.2-0.6
		c0.9,0,1.7,0.2,2.5,0.5l-0.4,1c-0.8-0.3-1.5-0.5-2.2-0.5c-0.6,0-1,0.1-1.3,0.3c-0.3,0.2-0.4,0.4-0.4,0.8c0,0.2,0.1,0.4,0.2,0.6
		c0.1,0.2,0.3,0.3,0.5,0.4c0.2,0.1,0.7,0.3,1.4,0.6c1,0.3,1.6,0.7,1.9,1.1C226.3,164.4,226.5,164.9,226.5,165.4z"/>
</g>
<path class="st2" d="M124.8,6c31.7,0,61.6,12.4,84,34.8c22.4,22.4,34.8,52.3,34.8,84s-12.4,61.6-34.8,84
	c-22.4,22.4-52.3,34.8-84,34.8c-31.7,0-61.6-12.4-84-34.8C18.4,186.4,6,156.6,6,124.8s12.4-61.6,34.8-84C63.3,18.4,93.1,6,124.8,6
	 M124.8,0C55.9,0,0,55.9,0,124.8s55.9,124.8,124.8,124.8s124.8-55.9,124.8-124.8S193.8,0,124.8,0L124.8,0z"/>
<g>
	<path class="st3" d="M275.2,6c31.7,0,61.6,12.4,84,34.8c22.4,22.4,34.8,52.3,34.8,84s-12.4,61.6-34.8,84
		c-22.4,22.4-52.3,34.8-84,34.8c-31.7,0-61.6-12.4-84-34.8c-22.4-22.4-34.8-52.3-34.8-84s12.4-61.6,34.8-84
		C213.6,18.4,243.4,6,275.2,6 M275.2,0c-68.9,0-124.8,55.9-124.8,124.8s55.9,124.8,124.8,124.8S400,193.8,400,124.8S344.1,0,275.2,0
		L275.2,0z"/>
</g>
<g>
	<path class="st4" d="M200,136.3c31.7,0,61.6,12.4,84,34.8c22.4,22.4,34.8,52.3,34.8,84s-12.4,61.6-34.8,84
		c-22.4,22.4-52.3,34.8-84,34.8s-61.6-12.4-84-34.8c-22.4-22.4-34.8-52.3-34.8-84s12.4-61.6,34.8-84
		C138.4,148.7,168.3,136.3,200,136.3 M200,130.3c-68.9,0-124.8,55.9-124.8,124.8S131.1,380,200,380s124.8-55.9,124.8-124.8
		S268.9,130.3,200,130.3L200,130.3z"/>
</g>
</svg>
